<svg xmlns="http://www.w3.org/2000/svg" width="17" height="9">
    <path fill="#FFF" fill-rule="evenodd" d="M16.887 4.743c0-.281-.099-.518-.297-.711-.198-.192-.432-.289-.703-.289H4.34l1.266-1.297c.198-.198.297-.432.297-.703 0-.271-.099-.505-.297-.703-.188-.198-.419-.297-.695-.297-.277 0-.514.099-.711.297L1.215 4.024c-.198.198-.297.435-.297.711 0 .276.099.508.297.696l2.985 3c.104.093.216.164.336.211.119.047.247.07.382.07.125 0 .248-.023.368-.07.119-.047.231-.118.335-.211.198-.198.297-.435.297-.711 0-.276-.099-.508-.297-.696L4.34 5.727h11.547c.271 0 .505-.096.703-.289.198-.192.297-.424.297-.695z"/>
</svg>
