<svg xmlns="http://www.w3.org/2000/svg" width="17" height="9">
    <path fill="#FFF" fill-rule="evenodd" d="M16.614 5.415c.197-.198.297-.432.297-.703 0-.271-.1-.505-.297-.703l-3-3c-.198-.198-.433-.297-.703-.297-.271 0-.506.099-.704.297-.198.198-.296.432-.296.703 0 .271.098.505.296.703l1.297 1.297H1.911c-.303 0-.545.091-.727.273-.182.183-.273.425-.273.727s.091.544.273.726c.182.183.424.274.727.274h11.593l-1.297 1.297c-.198.198-.296.432-.296.703 0 .271.098.505.296.703.104.094.211.167.321.219.109.052.237.078.383.078.145 0 .273-.026.382-.078.11-.052.216-.125.321-.219l3-3z"/>
</svg>
